<svg class="chart" viewBox="0 0 640 420" role="img" aria-label="HOB cards, after-fix" xmlns="http://www.w3.org/2000/svg"><line x1="178.2" x2="178.2" y1="16" y2="374" class="grid"/><text x="178.2" y="390.0" class="tick" text-anchor="middle" >50%</text><line x1="303.2" x2="303.2" y1="16" y2="374" class="grid"/><text x="303.2" y="390.0" class="tick" text-anchor="middle" >55%</text><line x1="428.2" x2="428.2" y1="16" y2="374" class="grid"/><text x="428.2" y="390.0" class="tick" text-anchor="middle" >60%</text><line x1="553.3" x2="553.3" y1="16" y2="374" class="grid"/><text x="553.3" y="390.0" class="tick" text-anchor="middle" >65%</text><line x1="56" x2="620" y1="352.2" y2="352.2" class="grid"/><text x="50.0" y="356.2" class="tick" text-anchor="end" >30%</text><line x1="56" x2="620" y1="262.4" y2="262.4" class="grid"/><text x="50.0" y="266.4" class="tick" text-anchor="end" >40%</text><line x1="56" x2="620" y1="172.6" y2="172.6" class="grid"/><text x="50.0" y="176.6" class="tick" text-anchor="end" >50%</text><line x1="56" x2="620" y1="82.8" y2="82.8" class="grid"/><text x="50.0" y="86.8" class="tick" text-anchor="end" >60%</text><line x1="56" x2="620" y1="172.6" y2="172.6" class="ref"/><text x="338.0" y="412.0" class="axis" text-anchor="middle" >Real win rate when drawn (17Lands)</text><text x="14.0" y="195.0" class="axis" text-anchor="middle" transform="rotate(-90 14 195.0)">Simulated win rate when drawn</text><circle cx="268.1" cy="197.9" r="3.6" fill="var(--mana-g)" class="pt"><title>Wood Elves: 54%, 47%</title></circle><circle cx="302.2" cy="148.3" r="3.6" fill="var(--mana-b)" class="pt"><title>Gathering of Darkness: 55%, 53%</title></circle><circle cx="505.9" cy="131.3" r="3.6" fill="var(--mana-w)" class="pt"><title>Kíli the Resourceful: 63%, 55%</title></circle><circle cx="343.3" cy="160.4" r="3.6" fill="var(--mana-m)" class="pt"><title>Thorin Oakenshield: 57%, 51%</title></circle><circle cx="355.1" cy="235.9" r="3.6" fill="var(--mana-g)" class="pt"><title>Down in the Valley: 57%, 43%</title></circle><circle cx="372.8" cy="154.2" r="3.6" fill="var(--mana-u)" class="pt"><title>Thranduil, Sindarin Liege: 58%, 52%</title></circle><circle cx="302.6" cy="159.0" r="3.6" fill="var(--mana-g)" class="pt"><title>Wargling: 55%, 52%</title></circle><circle cx="514.4" cy="243.6" r="3.6" fill="var(--mana-g)" class="pt"><title>Beorn the Fierce: 63%, 42%</title></circle><circle cx="270.6" cy="200.2" r="3.6" fill="var(--mana-b)" class="pt"><title>Reverent Howl: 54%, 47%</title></circle><circle cx="372.5" cy="110.4" r="3.6" fill="var(--mana-b)" class="pt"><title>Ravening Warg: 58%, 57%</title></circle><circle cx="382.2" cy="185.6" r="3.6" fill="var(--mana-u)" class="pt"><title>Plunder the Trollshaws: 58%, 49%</title></circle><circle cx="191.3" cy="180.2" r="3.6" fill="var(--mana-g)" class="pt"><title>Little Bear: 51%, 49%</title></circle><circle cx="207.5" cy="208.6" r="3.6" fill="var(--mana-r)" class="pt"><title>Balin, Loremaster: 51%, 46%</title></circle><circle cx="217.7" cy="233.7" r="3.6" fill="var(--mana-g)" class="pt"><title>Cantankerous Keepers: 52%, 43%</title></circle><circle cx="432.4" cy="143.5" r="3.6" fill="var(--mana-r)" class="pt"><title>Burn, Burn, Tree and Fern: 60%, 53%</title></circle><circle cx="383.8" cy="100.4" r="3.6" fill="var(--mana-r)" class="pt"><title>Stone-Giant of High Pass: 58%, 58%</title></circle><circle cx="418.0" cy="54.5" r="3.6" fill="var(--mana-g)" class="pt"><title>Mirkwood Pathmaker: 60%, 63%</title></circle><circle cx="357.4" cy="209.0" r="3.6" fill="var(--mana-r)" class="pt"><title>The Misty Mountains Cold: 57%, 46%</title></circle><circle cx="217.9" cy="222.1" r="3.6" fill="var(--mana-g)" class="pt"><title>Part in Friendship: 52%, 44%</title></circle><circle cx="187.2" cy="314.8" r="3.6" fill="var(--mana-c)" class="pt"><title>My Precious: 50%, 34%</title></circle><circle cx="321.0" cy="118.4" r="3.6" fill="var(--mana-b)" class="pt"><title>Duskwatch Hunter: 56%, 56%</title></circle><circle cx="486.1" cy="49.8" r="3.6" fill="var(--mana-m)" class="pt"><title>Thranduil&#x27;s Company: 62%, 64%</title></circle><circle cx="271.7" cy="156.0" r="3.6" fill="var(--mana-c)" class="pt"><title>Troop of Ponies: 54%, 52%</title></circle><circle cx="206.8" cy="216.1" r="3.6" fill="var(--mana-u)" class="pt"><title>Riddles in the Dark: 51%, 45%</title></circle><circle cx="317.3" cy="139.7" r="3.6" fill="var(--mana-w)" class="pt"><title>Ori, Keeper of Songs: 56%, 54%</title></circle><circle cx="210.5" cy="251.2" r="3.6" fill="var(--mana-u)" class="pt"><title>Thranduil&#x27;s Decree: 51%, 41%</title></circle><circle cx="391.0" cy="116.3" r="3.6" fill="var(--mana-r)" class="pt"><title>Misty Mountains Raider: 59%, 56%</title></circle><circle cx="247.3" cy="207.6" r="3.6" fill="var(--mana-r)" class="pt"><title>Smaug&#x27;s Fury: 53%, 46%</title></circle><circle cx="338.6" cy="148.5" r="3.6" fill="var(--mana-b)" class="pt"><title>Dreaded Bat-Cloud: 56%, 53%</title></circle><circle cx="223.3" cy="149.7" r="3.6" fill="var(--mana-m)" class="pt"><title>Bolg&#x27;s Company: 52%, 53%</title></circle><circle cx="413.4" cy="139.7" r="3.6" fill="var(--mana-b)" class="pt"><title>Nighthowl Pursuer: 59%, 54%</title></circle><circle cx="325.1" cy="161.4" r="3.6" fill="var(--mana-b)" class="pt"><title>Front Porch Sentries: 56%, 51%</title></circle><circle cx="332.5" cy="176.8" r="3.6" fill="var(--mana-u)" class="pt"><title>Most Decrepit Old Bird: 56%, 50%</title></circle><circle cx="462.1" cy="127.9" r="3.6" fill="var(--mana-b)" class="pt"><title>Head of the Hunt: 61%, 55%</title></circle><circle cx="265.1" cy="206.7" r="3.6" fill="var(--mana-r)" class="pt"><title>Snowslope Hunter: 53%, 46%</title></circle><circle cx="470.4" cy="152.9" r="3.6" fill="var(--mana-r)" class="pt"><title>Dáin Ironfoot: 62%, 52%</title></circle><circle cx="357.5" cy="133.5" r="3.6" fill="var(--mana-r)" class="pt"><title>Dwarven Mauler: 57%, 54%</title></circle><circle cx="248.7" cy="162.3" r="3.6" fill="var(--mana-w)" class="pt"><title>Lake-town Lookout: 53%, 51%</title></circle><circle cx="370.2" cy="137.0" r="3.6" fill="var(--mana-b)" class="pt"><title>Bilbo&#x27;s Deadly Slice: 58%, 54%</title></circle><circle cx="269.9" cy="230.0" r="3.6" fill="var(--mana-u)" class="pt"><title>Confusticate and Bebother: 54%, 44%</title></circle><circle cx="412.1" cy="179.6" r="3.6" fill="var(--mana-b)" class="pt"><title>Down, Down to Goblin-town: 59%, 49%</title></circle><circle cx="566.5" cy="118.1" r="3.6" fill="var(--mana-w)" class="pt"><title>An Unexpected Party: 66%, 56%</title></circle><circle cx="255.6" cy="259.5" r="3.6" fill="var(--mana-u)" class="pt"><title>The Lord of the Eagles: 53%, 40%</title></circle><circle cx="484.4" cy="35.2" r="3.6" fill="var(--mana-m)" class="pt"><title>Chief Warg&#x27;s Company: 62%, 65%</title></circle><circle cx="276.0" cy="240.8" r="3.6" fill="var(--mana-g)" class="pt"><title>The Notary Hobbits: 54%, 42%</title></circle><circle cx="271.0" cy="144.7" r="3.6" fill="var(--mana-c)" class="pt"><title>Old Thrush: 54%, 53%</title></circle><circle cx="513.0" cy="223.0" r="3.6" fill="var(--mana-r)" class="pt"><title>Thorin, Mountain-king: 63%, 44%</title></circle><circle cx="298.3" cy="169.3" r="3.6" fill="var(--mana-w)" class="pt"><title>Bifur, Melodic Rider: 55%, 50%</title></circle><circle cx="340.7" cy="199.0" r="3.6" fill="var(--mana-w)" class="pt"><title>Magnificent End: 56%, 47%</title></circle><circle cx="353.3" cy="210.2" r="3.6" fill="var(--mana-u)" class="pt"><title>Lakeshore Apothecary: 57%, 46%</title></circle><circle cx="248.4" cy="203.5" r="3.6" fill="var(--mana-m)" class="pt"><title>The Chief Warg: 53%, 47%</title></circle><circle cx="179.9" cy="186.7" r="3.6" fill="var(--mana-c)" class="pt"><title>Giant&#x27;s Boulder: 50%, 48%</title></circle><circle cx="265.8" cy="156.7" r="3.6" fill="var(--mana-g)" class="pt"><title>Boughside Wanderers: 54%, 52%</title></circle><circle cx="308.8" cy="133.0" r="3.6" fill="var(--mana-w)" class="pt"><title>Dwarven Provisioner: 55%, 54%</title></circle><circle cx="338.5" cy="133.6" r="3.6" fill="var(--mana-r)" class="pt"><title>Tidings of War: 56%, 54%</title></circle><circle cx="261.9" cy="167.0" r="3.6" fill="var(--mana-w)" class="pt"><title>Velvetwing Butterflies: 53%, 51%</title></circle><circle cx="328.1" cy="227.9" r="3.6" fill="var(--mana-u)" class="pt"><title>Sound the Trumpets: 56%, 44%</title></circle><circle cx="357.4" cy="148.3" r="3.6" fill="var(--mana-r)" class="pt"><title>Gandalf, Goblins&#x27; Bane: 57%, 53%</title></circle><circle cx="273.3" cy="190.5" r="3.6" fill="var(--mana-g)" class="pt"><title>Warg Tactics: 54%, 48%</title></circle><circle cx="208.6" cy="161.4" r="3.6" fill="var(--mana-u)" class="pt"><title>Elrond, Moon-Reader: 51%, 51%</title></circle><circle cx="341.7" cy="159.1" r="3.6" fill="var(--mana-g)" class="pt"><title>Quarrel: 57%, 52%</title></circle><circle cx="439.3" cy="125.7" r="3.6" fill="var(--mana-w)" class="pt"><title>Stone by Sunlight: 60%, 55%</title></circle><circle cx="338.9" cy="141.1" r="3.6" fill="var(--mana-r)" class="pt"><title>Smaug, the Great Calamity: 56%, 54%</title></circle><circle cx="355.7" cy="150.3" r="3.6" fill="var(--mana-b)" class="pt"><title>Gollum the Abandoned: 57%, 52%</title></circle><circle cx="281.5" cy="185.2" r="3.6" fill="var(--mana-b)" class="pt"><title>Azog, Moria&#x27;s Ruin: 54%, 49%</title></circle><circle cx="298.7" cy="220.5" r="3.6" fill="var(--mana-c)" class="pt"><title>Thrór&#x27;s Map: 55%, 45%</title></circle><circle cx="402.6" cy="159.0" r="3.6" fill="var(--mana-g)" class="pt"><title>Dancing from Dark to Dawn: 59%, 52%</title></circle><circle cx="226.9" cy="197.3" r="3.6" fill="var(--mana-g)" class="pt"><title>Radagast of Rhosgobel: 52%, 47%</title></circle><circle cx="405.3" cy="145.6" r="3.6" fill="var(--mana-w)" class="pt"><title>Dwalin, Weaponmaster: 59%, 53%</title></circle><circle cx="383.9" cy="134.8" r="3.6" fill="var(--mana-w)" class="pt"><title>Patient Instructor: 58%, 54%</title></circle><circle cx="355.1" cy="141.3" r="3.6" fill="var(--mana-b)" class="pt"><title>Stir Up Trouble: 57%, 53%</title></circle><circle cx="170.7" cy="178.7" r="3.6" fill="var(--mana-u)" class="pt"><title>Elven Raft-Steerer: 50%, 49%</title></circle><circle cx="228.8" cy="215.8" r="3.6" fill="var(--mana-c)" class="pt"><title>The Black Arrow: 52%, 45%</title></circle><circle cx="301.4" cy="148.3" r="3.6" fill="var(--mana-r)" class="pt"><title>Bombur, Gentle Dreamer: 55%, 53%</title></circle><circle cx="410.7" cy="151.5" r="3.6" fill="var(--mana-r)" class="pt"><title>Gandalf, Spark Starter: 59%, 52%</title></circle><circle cx="527.4" cy="46.4" r="3.6" fill="var(--mana-m)" class="pt"><title>Bard&#x27;s Company: 64%, 64%</title></circle><circle cx="288.4" cy="197.6" r="3.6" fill="var(--mana-r)" class="pt"><title>Goblin-town Flunkies: 54%, 47%</title></circle><circle cx="252.0" cy="124.4" r="3.6" fill="var(--mana-w)" class="pt"><title>Eagle of the Great Shelf: 53%, 55%</title></circle><circle cx="319.7" cy="143.6" r="3.6" fill="var(--mana-m)" class="pt"><title>Smaug, Wicked Worm: 56%, 53%</title></circle><circle cx="398.7" cy="322.4" r="3.6" fill="var(--mana-w)" class="pt"><title>Settle the Wreckage: 59%, 33%</title></circle><circle cx="255.0" cy="180.0" r="3.6" fill="var(--mana-g)" class="pt"><title>Guardian of the Halls: 53%, 49%</title></circle><circle cx="312.1" cy="197.3" r="3.6" fill="var(--mana-u)" class="pt"><title>Mirkwood Nurturer: 55%, 47%</title></circle><circle cx="325.4" cy="161.1" r="3.6" fill="var(--mana-b)" class="pt"><title>Stony-Voiced Goblins: 56%, 51%</title></circle><circle cx="210.8" cy="201.8" r="3.6" fill="var(--mana-u)" class="pt"><title>Gandalf, Wandering Wizard: 51%, 47%</title></circle><circle cx="366.2" cy="163.3" r="3.6" fill="var(--mana-u)" class="pt"><title>Long Lake Nuisance: 58%, 51%</title></circle><circle cx="316.0" cy="133.0" r="3.6" fill="var(--mana-w)" class="pt"><title>Esgaroth Garrison: 56%, 54%</title></circle><circle cx="594.4" cy="51.2" r="3.6" fill="var(--mana-w)" class="pt"><title>Fíli the Pathfinder: 67%, 64%</title></circle><circle cx="274.9" cy="157.1" r="3.6" fill="var(--mana-g)" class="pt"><title>Galion, Elvenking&#x27;s Butler: 54%, 52%</title></circle><circle cx="302.8" cy="222.5" r="3.6" fill="var(--mana-g)" class="pt"><title>Beorn&#x27;s Hospitality: 55%, 44%</title></circle><circle cx="249.7" cy="162.8" r="3.6" fill="var(--mana-c)" class="pt"><title>Long-Bodied Grey Dog: 53%, 51%</title></circle><circle cx="366.4" cy="137.7" r="3.6" fill="var(--mana-b)" class="pt"><title>Great Ugly-Looking Goblin: 58%, 54%</title></circle><circle cx="298.7" cy="139.1" r="3.6" fill="var(--mana-m)" class="pt"><title>Bolg of the North: 55%, 54%</title></circle><circle cx="326.9" cy="207.7" r="3.6" fill="var(--mana-c)" class="pt"><title>Dwarven Mattock: 56%, 46%</title></circle><circle cx="449.8" cy="141.9" r="3.6" fill="var(--mana-w)" class="pt"><title>The Mountain-king&#x27;s Return: 61%, 53%</title></circle><circle cx="215.6" cy="179.9" r="3.6" fill="var(--mana-g)" class="pt"><title>Gigantic Big Bear: 51%, 49%</title></circle><circle cx="254.7" cy="129.2" r="3.6" fill="var(--mana-g)" class="pt"><title>Old Fat Spider: 53%, 55%</title></circle><circle cx="321.2" cy="181.6" r="3.6" fill="var(--mana-r)" class="pt"><title>Óin the Brave: 56%, 49%</title></circle><circle cx="226.7" cy="172.8" r="3.6" fill="var(--mana-u)" class="pt"><title>Ravenhill Flock: 52%, 50%</title></circle><circle cx="294.2" cy="154.3" r="3.6" fill="var(--mana-b)" class="pt"><title>The Master of Lake-town: 55%, 52%</title></circle><circle cx="509.2" cy="68.8" r="3.6" fill="var(--mana-r)" class="pt"><title>Smaug the Magnificent: 63%, 62%</title></circle><circle cx="335.4" cy="164.2" r="3.6" fill="var(--mana-b)" class="pt"><title>Rage into the Valley: 56%, 51%</title></circle><circle cx="407.0" cy="146.7" r="3.6" fill="var(--mana-r)" class="pt"><title>Pinecone Strike: 59%, 53%</title></circle><circle cx="286.6" cy="153.4" r="3.6" fill="var(--mana-w)" class="pt"><title>Nori, Teller of Tales: 54%, 52%</title></circle><circle cx="342.0" cy="153.4" r="3.6" fill="var(--mana-w)" class="pt"><title>Eagle&#x27;s Rescue: 57%, 52%</title></circle><circle cx="483.2" cy="161.1" r="3.6" fill="var(--mana-m)" class="pt"><title>Dáin&#x27;s Company: 62%, 51%</title></circle><circle cx="325.9" cy="116.5" r="3.6" fill="var(--mana-g)" class="pt"><title>Attercop: 56%, 56%</title></circle><circle cx="221.7" cy="134.3" r="3.6" fill="var(--mana-w)" class="pt"><title>Moment of Glory: 52%, 54%</title></circle><circle cx="337.3" cy="137.7" r="3.6" fill="var(--mana-w)" class="pt"><title>Bofur, Reliable Guardian: 56%, 54%</title></circle><circle cx="268.8" cy="202.0" r="3.6" fill="var(--mana-m)" class="pt"><title>Silvan Reveler: 54%, 47%</title></circle><circle cx="245.9" cy="231.2" r="3.6" fill="var(--mana-u)" class="pt"><title>Old Fat Spider Can&#x27;t See Me: 53%, 43%</title></circle><circle cx="369.2" cy="146.3" r="3.6" fill="var(--mana-b)" class="pt"><title>Goblin Plate Mail: 58%, 53%</title></circle><circle cx="346.7" cy="99.2" r="3.6" fill="var(--mana-b)" class="pt"><title>Large Bear: 57%, 58%</title></circle><circle cx="369.2" cy="179.1" r="3.6" fill="var(--mana-m)" class="pt"><title>Tom, Bert, and William: 58%, 49%</title></circle><circle cx="147.5" cy="199.1" r="3.6" fill="var(--mana-u)" class="pt"><title>Mirkwood Meditator: 49%, 47%</title></circle><circle cx="231.1" cy="129.4" r="3.6" fill="var(--mana-g)" class="pt"><title>Wilderland Scrounger: 52%, 55%</title></circle><circle cx="315.3" cy="173.2" r="3.6" fill="var(--mana-u)" class="pt"><title>Enchanted River&#x27;s Grasp: 55%, 50%</title></circle><circle cx="193.0" cy="199.1" r="3.6" fill="var(--mana-c)" class="pt"><title>Orcrist, Goblin-cleaver: 51%, 47%</title></circle><circle cx="186.6" cy="143.7" r="3.6" fill="var(--mana-g)" class="pt"><title>Beorn, Reluctant Host: 50%, 53%</title></circle><circle cx="235.2" cy="226.5" r="3.6" fill="var(--mana-b)" class="pt"><title>Along the Crooked Way: 52%, 44%</title></circle><circle cx="459.8" cy="132.4" r="3.6" fill="var(--mana-r)" class="pt"><title>Bothersome Noisemaker: 61%, 54%</title></circle><circle cx="392.8" cy="188.7" r="3.6" fill="var(--mana-m)" class="pt"><title>Bard the Bowman: 59%, 48%</title></circle><circle cx="430.0" cy="218.2" r="3.6" fill="var(--mana-u)" class="pt"><title>Bilbo, Luckwearer: 60%, 45%</title></circle><circle cx="245.3" cy="219.7" r="3.6" fill="var(--mana-r)" class="pt"><title>Desolation of Smaug: 53%, 45%</title></circle><circle cx="351.2" cy="146.6" r="3.6" fill="var(--mana-b)" class="pt"><title>The Great Goblin: 57%, 53%</title></circle><circle cx="410.3" cy="136.5" r="3.6" fill="var(--mana-g)" class="pt"><title>Nasty Little Rabbit: 59%, 54%</title></circle><circle cx="273.3" cy="155.6" r="3.6" fill="var(--mana-b)" class="pt"><title>Great Fierce Bee: 54%, 52%</title></circle><circle cx="339.4" cy="137.4" r="3.6" fill="var(--mana-b)" class="pt"><title>Gnashing of Teeth: 56%, 54%</title></circle><circle cx="232.8" cy="192.5" r="3.6" fill="var(--mana-u)" class="pt"><title>Lake-town Mariners: 52%, 48%</title></circle><circle cx="154.2" cy="230.0" r="3.6" fill="var(--mana-w)" class="pt"><title>Thorin&#x27;s Last Stand: 49%, 44%</title></circle><circle cx="334.4" cy="171.3" r="3.6" fill="var(--mana-r)" class="pt"><title>Gundabad Opportunist: 56%, 50%</title></circle><circle cx="465.7" cy="147.3" r="3.6" fill="var(--mana-b)" class="pt"><title>Desolation Prowler: 61%, 53%</title></circle><circle cx="374.0" cy="221.0" r="3.6" fill="var(--mana-w)" class="pt"><title>Iron Hills Blacksmith: 58%, 45%</title></circle><circle cx="328.6" cy="207.1" r="3.6" fill="var(--mana-u)" class="pt"><title>Uneasy Partings: 56%, 46%</title></circle><circle cx="286.0" cy="149.5" r="3.6" fill="var(--mana-w)" class="pt"><title>Lake-town Toymaker: 54%, 53%</title></circle><circle cx="247.3" cy="187.2" r="3.6" fill="var(--mana-w)" class="pt"><title>Vow to Erebor: 53%, 48%</title></circle><circle cx="254.2" cy="165.0" r="3.6" fill="var(--mana-c)" class="pt"><title>Well-Worn Spatula: 53%, 51%</title></circle><circle cx="360.8" cy="162.6" r="3.6" fill="var(--mana-u)" class="pt"><title>Bilbo Baggins, Burglar: 57%, 51%</title></circle><circle cx="265.6" cy="204.0" r="3.6" fill="var(--mana-g)" class="pt"><title>Woodland Weavemaster: 53%, 47%</title></circle><circle cx="411.1" cy="100.7" r="3.6" fill="var(--mana-w)" class="pt"><title>The Queen of Dale: 59%, 58%</title></circle><circle cx="81.6" cy="155.7" r="3.6" fill="var(--mana-r)" class="pt"><title>Desert Were-Worm: 46%, 52%</title></circle><circle cx="373.5" cy="188.1" r="3.6" fill="var(--mana-u)" class="pt"><title>Master&#x27;s Councillors: 58%, 48%</title></circle><circle cx="428.0" cy="119.1" r="3.6" fill="var(--mana-c)" class="pt"><title>The Arkenstone: 60%, 56%</title></circle><circle cx="293.3" cy="136.3" r="3.6" fill="var(--mana-g)" class="pt"><title>Ordinary Bear: 55%, 54%</title></circle><circle cx="329.1" cy="166.9" r="3.6" fill="var(--mana-r)" class="pt"><title>Ragged Short Spear: 56%, 51%</title></circle><circle cx="146.9" cy="354.8" r="3.6" fill="var(--mana-c)" class="pt"><title>Key to the Side-Door: 49%, 30%</title></circle><circle cx="309.7" cy="175.4" r="3.6" fill="var(--mana-g)" class="pt"><title>Troll Negotiations: 55%, 50%</title></circle><circle cx="289.7" cy="156.8" r="3.6" fill="var(--mana-w)" class="pt"><title>Dwarven Shortsword: 54%, 52%</title></circle><circle cx="442.4" cy="120.1" r="3.6" fill="var(--mana-b)" class="pt"><title>Crude Bent Blade: 61%, 56%</title></circle><circle cx="287.1" cy="142.9" r="3.6" fill="var(--mana-w)" class="pt"><title>Dáin, Lord of the Iron Hills: 54%, 53%</title></circle><circle cx="270.3" cy="174.9" r="3.6" fill="var(--mana-b)" class="pt"><title>Fearsome Goblin Pair: 54%, 50%</title></circle><circle cx="461.0" cy="78.1" r="3.6" fill="var(--mana-b)" class="pt"><title>Rhovanion Rampager: 61%, 61%</title></circle><circle cx="398.2" cy="152.8" r="3.6" fill="var(--mana-b)" class="pt"><title>The Sackville-Bagginses: 59%, 52%</title></circle><circle cx="437.0" cy="88.3" r="3.6" fill="var(--mana-g)" class="pt"><title>Bejeweled Warg: 60%, 59%</title></circle><circle cx="386.3" cy="139.4" r="3.6" fill="var(--mana-r)" class="pt"><title>Glóin the Mighty: 58%, 54%</title></circle><circle cx="372.1" cy="150.5" r="3.6" fill="var(--mana-r)" class="pt"><title>Dori, Bearer of Friends: 58%, 52%</title></circle><circle cx="222.6" cy="156.4" r="3.6" fill="var(--mana-r)" class="pt"><title>Iron Hills Stalwart: 52%, 52%</title></circle><circle cx="412.6" cy="143.4" r="3.6" fill="var(--mana-b)" class="pt"><title>Gollum, Silent Slinker: 59%, 53%</title></circle><circle cx="478.4" cy="103.9" r="3.6" fill="var(--mana-w)" class="pt"><title>Celebrate the Mountain-king: 62%, 58%</title></circle></svg>