<svg class="chart" viewBox="0 0 640 310" role="img" aria-label="The Way of the ... cycle" xmlns="http://www.w3.org/2000/svg"><line x1="246.9" x2="246.9" y1="10" y2="282" class="grid"/><text x="246.9" y="298.0" class="tick" text-anchor="middle" >30%</text><line x1="365.3" x2="365.3" y1="10" y2="282" class="grid"/><text x="365.3" y="298.0" class="tick" text-anchor="middle" >40%</text><line x1="483.7" x2="483.7" y1="10" y2="282" class="grid"/><text x="483.7" y="298.0" class="tick" text-anchor="middle" >50%</text><line x1="602.2" x2="602.2" y1="10" y2="282" class="grid"/><text x="602.2" y="298.0" class="tick" text-anchor="middle" >60%</text><line x1="504.9" x2="504.9" y1="10" y2="282" class="ref"/><text x="180.0" y="33.0" class="label" text-anchor="end" >Way of the Wildspeaker</text><line x1="508.4" x2="581.0" y1="29.0" y2="29.0" class="whisker"/><circle cx="544.9" cy="29.0" r="7" fill="var(--mana-g)" class="dot"><title>Way of the Wildspeaker: 55% (95% interval 52%–58%)</title></circle><text x="180.0" y="59.0" class="label" text-anchor="end" >Way of the Paradox</text><line x1="501.0" x2="563.1" y1="55.0" y2="55.0" class="whisker"/><circle cx="532.2" cy="55.0" r="7" fill="var(--mana-g)" class="dot"><title>Way of the Paradox: 54% (95% interval 51%–57%)</title></circle><text x="180.0" y="85.0" class="label" text-anchor="end" >Way of the Warlord</text><line x1="483.1" x2="541.4" y1="81.0" y2="81.0" class="whisker"/><circle cx="512.3" cy="81.0" r="7" fill="var(--mana-r)" class="dot"><title>Way of the Warlord: 52% (95% interval 50%–55%)</title></circle><text x="180.0" y="111.0" class="label" text-anchor="end" >Way of the Deathbringer</text><line x1="470.6" x2="546.7" y1="107.0" y2="107.0" class="whisker"/><circle cx="508.7" cy="107.0" r="7" fill="var(--mana-b)" class="dot"><title>Way of the Deathbringer: 52% (95% interval 49%–55%)</title></circle><text x="180.0" y="137.0" class="label" text-anchor="end" >Way of the Healer</text><line x1="465.5" x2="509.6" y1="133.0" y2="133.0" class="whisker"/><circle cx="487.6" cy="133.0" r="7" fill="var(--mana-w)" class="dot"><title>Way of the Healer: 50% (95% interval 48%–52%)</title></circle><text x="180.0" y="163.0" class="label" text-anchor="end" >Way of the Cryomancer</text><line x1="395.6" x2="468.4" y1="159.0" y2="159.0" class="whisker"/><circle cx="431.8" cy="159.0" r="7" fill="var(--mana-u)" class="dot"><title>Way of the Cryomancer: 46% (95% interval 43%–49%)</title></circle><text x="180.0" y="189.0" class="label" text-anchor="end" >Way of the Mentor</text><line x1="407.0" x2="447.9" y1="185.0" y2="185.0" class="whisker"/><circle cx="427.4" cy="185.0" r="7" fill="var(--mana-w)" class="dot"><title>Way of the Mentor: 45% (95% interval 44%–47%)</title></circle><text x="180.0" y="215.0" class="label" text-anchor="end" >Way of the Pyromancer</text><line x1="400.9" x2="451.5" y1="211.0" y2="211.0" class="whisker"/><circle cx="426.1" cy="211.0" r="7" fill="var(--mana-r)" class="dot"><title>Way of the Pyromancer: 45% (95% interval 43%–47%)</title></circle><text x="180.0" y="241.0" class="label" text-anchor="end" >Way of the Necromancer</text><line x1="365.1" x2="428.4" y1="237.0" y2="237.0" class="whisker"/><circle cx="396.5" cy="237.0" r="7" fill="var(--mana-b)" class="dot"><title>Way of the Necromancer: 43% (95% interval 40%–45%)</title></circle><text x="180.0" y="267.0" class="label" text-anchor="end" >Way of the Mind Sculptor</text><line x1="219.0" x2="317.5" y1="263.0" y2="263.0" class="whisker"/><circle cx="266.5" cy="263.0" r="7" fill="var(--mana-u)" class="dot"><title>Way of the Mind Sculptor: 32% (95% interval 28%–36%)</title></circle></svg>