<svg class="chart" viewBox="0 0 640 374" role="img" aria-label="Color pairs: simulation vs. experts" xmlns="http://www.w3.org/2000/svg"><line x1="192.0" x2="192.0" y1="10" y2="322" class="grid"/><text x="192.0" y="338.0" class="tick" text-anchor="middle" >45%</text><line x1="302.7" x2="302.7" y1="10" y2="322" class="grid"/><text x="302.7" y="338.0" class="tick" text-anchor="middle" >48%</text><line x1="413.5" x2="413.5" y1="10" y2="322" class="grid"/><text x="413.5" y="338.0" class="tick" text-anchor="middle" >50%</text><line x1="524.3" x2="524.3" y1="10" y2="322" class="grid"/><text x="524.3" y="338.0" class="tick" text-anchor="middle" >52%</text><line x1="407.6" x2="407.6" y1="10" y2="322" class="ref"/><text x="140.0" y="35.0" class="label" text-anchor="end" >RG Gruul (4)</text><rect x="371.4" y="24.0" width="214.0" height="14" rx="7" class="xband"><title>RG Gruul (4), experts (band: range of hosts): 53% (range 49%–54%). Scores: Luis +0, Ben +2, Marc +2, Ethan +2</title></rect><path d="M531.9,24.0 L538.9,31.0 L531.9,38.0 L524.9,31.0 Z" class="xpt"><title>RG Gruul (4), experts (band: range of hosts): 53% (range 49%–54%). Scores: Luis +0, Ben +2, Marc +2, Ethan +2</title></path><line x1="527.4" x2="583.3" y1="31.0" y2="31.0" class="whisker"/><g class="dot"><title>RG Gruul (4): 53% (95% interval 53%–54%)</title><path d="M555.3,25.0 A6,6 0 0 0 555.3,37.0 Z" fill="var(--mana-r)"/><path d="M555.3,25.0 A6,6 0 0 1 555.3,37.0 Z" fill="var(--mana-g)"/><circle cx="555.3" cy="31.0" r="6" fill="none" class="outline"/></g><text x="140.0" y="65.0" class="label" text-anchor="end" >BR Rakdos (6)</text><rect x="264.4" y="54.0" width="214.0" height="14" rx="7" class="xband"><title>BR Rakdos (6), experts (band: range of hosts): 49% (range 47%–51%). Scores: Ethan -1, Ben +1, Marshall +1, Luis +1, Marc -1, Alex -1</title></rect><path d="M371.4,54.0 L378.4,61.0 L371.4,68.0 L364.4,61.0 Z" class="xpt"><title>BR Rakdos (6), experts (band: range of hosts): 49% (range 47%–51%). Scores: Ethan -1, Ben +1, Marshall +1, Luis +1, Marc -1, Alex -1</title></path><line x1="411.6" x2="500.6" y1="61.0" y2="61.0" class="whisker"/><g class="dot"><title>BR Rakdos (6): 51% (95% interval 50%–52%)</title><path d="M456.1,55.0 A6,6 0 0 0 456.1,67.0 Z" fill="var(--mana-b)"/><path d="M456.1,55.0 A6,6 0 0 1 456.1,67.0 Z" fill="var(--mana-r)"/><circle cx="456.1" cy="61.0" r="6" fill="none" class="outline"/></g><text x="140.0" y="95.0" class="label" text-anchor="end" >BG Golgari (4)</text><rect x="264.4" y="84.0" width="214.0" height="14" rx="7" class="xband"><title>BG Golgari (4), experts (band: range of hosts): 48% (range 47%–51%). Scores: Marshall -1, Ben -1, Ethan +0, Marc +1</title></rect><path d="M344.6,84.0 L351.6,91.0 L344.6,98.0 L337.6,91.0 Z" class="xpt"><title>BG Golgari (4), experts (band: range of hosts): 48% (range 47%–51%). Scores: Marshall -1, Ben -1, Ethan +0, Marc +1</title></path><line x1="418.3" x2="481.3" y1="91.0" y2="91.0" class="whisker"/><g class="dot"><title>BG Golgari (4): 51% (95% interval 50%–52%)</title><path d="M449.8,85.0 A6,6 0 0 0 449.8,97.0 Z" fill="var(--mana-b)"/><path d="M449.8,85.0 A6,6 0 0 1 449.8,97.0 Z" fill="var(--mana-g)"/><circle cx="449.8" cy="91.0" r="6" fill="none" class="outline"/></g><text x="140.0" y="125.0" class="label" text-anchor="end" >UR Izzet (5)</text><rect x="264.4" y="114.0" width="214.0" height="14" rx="7" class="xband"><title>UR Izzet (5), experts (band: range of hosts): 50% (range 47%–51%). Scores: Marc +0, Alex +1, Marshall -1, Ben +1, Ethan +1</title></rect><path d="M414.2,114.0 L421.2,121.0 L414.2,128.0 L407.2,121.0 Z" class="xpt"><title>UR Izzet (5), experts (band: range of hosts): 50% (range 47%–51%). Scores: Marc +0, Alex +1, Marshall -1, Ben +1, Ethan +1</title></path><line x1="392.0" x2="480.3" y1="121.0" y2="121.0" class="whisker"/><g class="dot"><title>UR Izzet (5): 51% (95% interval 50%–52%)</title><path d="M436.2,115.0 A6,6 0 0 0 436.2,127.0 Z" fill="var(--mana-u)"/><path d="M436.2,115.0 A6,6 0 0 1 436.2,127.0 Z" fill="var(--mana-r)"/><circle cx="436.2" cy="121.0" r="6" fill="none" class="outline"/></g><text x="140.0" y="155.0" class="label" text-anchor="end" >UG Simic (5)</text><rect x="264.4" y="144.0" width="107.0" height="14" rx="7" class="xband"><title>UG Simic (5), experts (band: range of hosts): 48% (range 47%–49%). Scores: Ethan -1, Ben -1, Marshall -1, Luis +0, Marc +0</title></rect><path d="M307.2,144.0 L314.2,151.0 L307.2,158.0 L300.2,151.0 Z" class="xpt"><title>UG Simic (5), experts (band: range of hosts): 48% (range 47%–49%). Scores: Ethan -1, Ben -1, Marshall -1, Luis +0, Marc +0</title></path><line x1="372.9" x2="445.9" y1="151.0" y2="151.0" class="whisker"/><g class="dot"><title>UG Simic (5): 50% (95% interval 49%–51%)</title><path d="M409.4,145.0 A6,6 0 0 0 409.4,157.0 Z" fill="var(--mana-u)"/><path d="M409.4,145.0 A6,6 0 0 1 409.4,157.0 Z" fill="var(--mana-g)"/><circle cx="409.4" cy="151.0" r="6" fill="none" class="outline"/></g><text x="140.0" y="185.0" class="label" text-anchor="end" >WB Orzhov (3)</text><rect x="371.4" y="174.0" width="107.0" height="14" rx="7" class="xband"><title>WB Orzhov (3), experts (band: range of hosts): 51% (range 49%–51%). Scores: Ben +1, Marc +0, Ethan +1</title></rect><path d="M442.7,174.0 L449.7,181.0 L442.7,188.0 L435.7,181.0 Z" class="xpt"><title>WB Orzhov (3), experts (band: range of hosts): 51% (range 49%–51%). Scores: Ben +1, Marc +0, Ethan +1</title></path><line x1="381.6" x2="433.1" y1="181.0" y2="181.0" class="whisker"/><g class="dot"><title>WB Orzhov (3): 50% (95% interval 49%–50%)</title><path d="M407.3,175.0 A6,6 0 0 0 407.3,187.0 Z" fill="var(--mana-w)"/><path d="M407.3,175.0 A6,6 0 0 1 407.3,187.0 Z" fill="var(--mana-b)"/><circle cx="407.3" cy="181.0" r="6" fill="none" class="outline"/></g><text x="140.0" y="215.0" class="label" text-anchor="end" >WR Boros (1)</text><path d="M478.4,204.0 L485.4,211.0 L478.4,218.0 L471.4,211.0 Z" class="xpt"><title>WR Boros (1), experts (band: range of hosts): 51%. Scores: Ben +1</title></path><line x1="366.4" x2="416.0" y1="211.0" y2="211.0" class="whisker"/><g class="dot"><title>WR Boros (1): 49% (95% interval 49%–50%)</title><path d="M391.2,205.0 A6,6 0 0 0 391.2,217.0 Z" fill="var(--mana-w)"/><path d="M391.2,205.0 A6,6 0 0 1 391.2,217.0 Z" fill="var(--mana-r)"/><circle cx="391.2" cy="211.0" r="6" fill="none" class="outline"/></g><text x="140.0" y="245.0" class="label" text-anchor="end" >WG Selesnya (6)</text><rect x="371.4" y="234.0" width="107.0" height="14" rx="7" class="xband"><title>WG Selesnya (6), experts (band: range of hosts): 51% (range 49%–51%). Scores: Marshall +1, Luis +1, Ben +0, Marc +0, Alex +1, Ethan +1</title></rect><path d="M442.7,234.0 L449.7,241.0 L442.7,248.0 L435.7,241.0 Z" class="xpt"><title>WG Selesnya (6), experts (band: range of hosts): 51% (range 49%–51%). Scores: Marshall +1, Luis +1, Ben +0, Marc +0, Alex +1, Ethan +1</title></path><line x1="349.7" x2="401.1" y1="241.0" y2="241.0" class="whisker"/><g class="dot"><title>WG Selesnya (6): 49% (95% interval 49%–50%)</title><path d="M375.4,235.0 A6,6 0 0 0 375.4,247.0 Z" fill="var(--mana-w)"/><path d="M375.4,235.0 A6,6 0 0 1 375.4,247.0 Z" fill="var(--mana-g)"/><circle cx="375.4" cy="241.0" r="6" fill="none" class="outline"/></g><text x="140.0" y="275.0" class="label" text-anchor="end" >WU Azorius (3)</text><path d="M478.4,264.0 L485.4,271.0 L478.4,278.0 L471.4,271.0 Z" class="xpt"><title>WU Azorius (3), experts (band: range of hosts): 51%. Scores: Ben +1, Marc +1, Ethan +1</title></path><line x1="347.2" x2="399.4" y1="271.0" y2="271.0" class="whisker"/><g class="dot"><title>WU Azorius (3): 49% (95% interval 49%–50%)</title><path d="M373.3,265.0 A6,6 0 0 0 373.3,277.0 Z" fill="var(--mana-w)"/><path d="M373.3,265.0 A6,6 0 0 1 373.3,277.0 Z" fill="var(--mana-u)"/><circle cx="373.3" cy="271.0" r="6" fill="none" class="outline"/></g><text x="140.0" y="305.0" class="label" text-anchor="end" >UB Dimir (2)</text><path d="M264.4,294.0 L271.4,301.0 L264.4,308.0 L257.4,301.0 Z" class="xpt"><title>UB Dimir (2), experts (band: range of hosts): 47%. Scores: Ben -1, Ethan -1</title></path><line x1="174.6" x2="268.9" y1="301.0" y2="301.0" class="whisker"/><g class="dot"><title>UB Dimir (2): 46% (95% interval 45%–47%)</title><path d="M221.7,295.0 A6,6 0 0 0 221.7,307.0 Z" fill="var(--mana-u)"/><path d="M221.7,295.0 A6,6 0 0 1 221.7,307.0 Z" fill="var(--mana-b)"/><circle cx="221.7" cy="301.0" r="6" fill="none" class="outline"/></g><circle cx="156" cy="356" r="5" fill="var(--mana-c)" class="dot"/><text x="166.0" y="360.0" class="tick" text-anchor="start" >Simulation (95% interval)</text><rect x="388" y="349" width="24" height="14" rx="7" class="xband"/><path d="M400,349 L407,356 L400,363 L393,356 Z" class="xpt"/><text x="418.0" y="360.0" class="tick" text-anchor="start" >Experts (band: range of hosts)</text></svg>