<svg class="chart" viewBox="0 0 640 258" role="img" aria-label="Mechanics against the set average" xmlns="http://www.w3.org/2000/svg"><line x1="194.9" x2="194.9" y1="10" y2="230" class="grid"/><text x="194.9" y="246.0" class="tick" text-anchor="middle" >-5.0</text><line x1="279.0" x2="279.0" y1="10" y2="230" class="grid"/><text x="279.0" y="246.0" class="tick" text-anchor="middle" >-2.5</text><line x1="363.2" x2="363.2" y1="10" y2="230" class="grid"/><text x="363.2" y="246.0" class="tick" text-anchor="middle" >+0.0</text><line x1="447.3" x2="447.3" y1="10" y2="230" class="grid"/><text x="447.3" y="246.0" class="tick" text-anchor="middle" >+2.5</text><line x1="531.5" x2="531.5" y1="10" y2="230" class="grid"/><text x="531.5" y="246.0" class="tick" text-anchor="middle" >+5.0</text><line x1="363.2" x2="363.2" y1="10" y2="230" class="ref"/><text x="180.0" y="33.0" class="label" text-anchor="end" >Flying (26)</text><line x1="379.2" x2="497.2" y1="29.0" y2="29.0" class="whisker"/><circle cx="438.0" cy="29.0" r="7" fill="var(--mana-c)" class="dot"><title>Flying (26): +2.2 (95% interval +0.5–+4.0)</title></circle><text x="180.0" y="59.0" class="label" text-anchor="end" >Planeswalker (7)</text><line x1="235.1" x2="581.0" y1="55.0" y2="55.0" class="whisker"/><circle cx="409.0" cy="55.0" r="7" fill="var(--mana-c)" class="dot"><title>Planeswalker (7): +1.4 (95% interval -3.8–+6.5)</title></circle><text x="180.0" y="85.0" class="label" text-anchor="end" >Prowess (9)</text><line x1="334.5" x2="472.5" y1="81.0" y2="81.0" class="whisker"/><circle cx="395.3" cy="81.0" r="7" fill="var(--mana-c)" class="dot"><title>Prowess (9): +1.0 (95% interval -0.9–+3.2)</title></circle><text x="180.0" y="111.0" class="label" text-anchor="end" >Scry (5)</text><line x1="347.0" x2="425.9" y1="107.0" y2="107.0" class="whisker"/><circle cx="386.5" cy="107.0" r="7" fill="var(--mana-c)" class="dot"><title>Scry (5): +0.7 (95% interval -0.5–+1.9)</title></circle><text x="180.0" y="137.0" class="label" text-anchor="end" >Prepare (23)</text><line x1="328.7" x2="429.1" y1="133.0" y2="133.0" class="whisker"/><circle cx="380.1" cy="133.0" r="7" fill="var(--mana-c)" class="dot"><title>Prepare (23): +0.5 (95% interval -1.0–+2.0)</title></circle><text x="180.0" y="163.0" class="label" text-anchor="end" >Empower Jace (33)</text><line x1="250.9" x2="384.7" y1="159.0" y2="159.0" class="whisker"/><circle cx="320.4" cy="159.0" r="7" fill="var(--mana-c)" class="dot"><title>Empower Jace (33): -1.3 (95% interval -3.3–+0.6)</title></circle><text x="180.0" y="189.0" class="label" text-anchor="end" >Surveil (45)</text><line x1="266.3" x2="362.6" y1="185.0" y2="185.0" class="whisker"/><circle cx="317.4" cy="185.0" r="7" fill="var(--mana-c)" class="dot"><title>Surveil (45): -1.4 (95% interval -2.9–-0.0)</title></circle><text x="180.0" y="215.0" class="label" text-anchor="end" >Equipment (4)</text><line x1="219.0" x2="363.8" y1="211.0" y2="211.0" class="whisker"/><circle cx="291.4" cy="211.0" r="7" fill="var(--mana-c)" class="dot"><title>Equipment (4): -2.1 (95% interval -4.3–+0.0)</title></circle></svg>